<?xml version="1.0" encoding="UTF-8" standalone="no"?>
<!-- Created with Inkscape (http://www.inkscape.org/) -->
<svg xmlns:rdf="http://www.w3.org/1999/02/22-rdf-syntax-ns#" xmlns="http://www.w3.org/2000/svg" xmlns:cc="http://web.resource.org/cc/" xmlns:dc="http://purl.org/dc/elements/1.1/" xmlns:svg="http://www.w3.org/2000/svg" xmlns:inkscape="http://www.inkscape.org/namespaces/inkscape" xmlns:sodipodi="http://sodipodi.sourceforge.net/DTD/sodipodi-0.dtd" xmlns:ns1="http://sozi.baierouge.fr" xmlns:xlink="http://www.w3.org/1999/xlink" id="svg2" viewBox="0 0 564.23 574.03" version="1.0" inkscape:version="0.91 r13725">
  <g id="layer1" transform="translate(-80.498 -288.9)">
    <path id="path2707" style="fill:#000000" d="m303.07 839.99c0-16.262 5.4549-25.579 28.954-49.452 15.925-16.178 28.954-30.32 28.954-31.426 0-1.1063-18.114-3.0351-40.254-4.2861-32.593-1.8416-43.062-4.9133-55.012-16.14-15.735-14.783-19.445-24.822-7.5205-20.35 13.395 5.0229 44.879 7.0229 44.879 2.851 0-11.5-23.353-23.301-46.11-23.301-40.914 0-69.14-11.364-84.549-34.04-7.592-11.173-12.875-21.242-11.741-22.377 1.1347-1.1347 11.853 4.5803 23.818 12.7 20.146 13.672 37.511 19.057 37.511 11.633 0-12.921-29.235-38.492-53.052-46.402-28.052-9.3172-58.655-38.364-64.675-61.386-2.2474-8.594 1.7144-6.9768 18.054 7.3696 12.964 11.382 21.813 15.741 23.244 11.448 4.2065-12.619-11.685-41.195-30.017-53.977-21.144-14.742-28.319-24.74-33.209-46.273-5.1539-22.697 0.89123-24.621 13.292-4.2297 10.156 16.701 22.159 18.707 22.105 3.6939-0.0136-3.7932-7.8201-18.623-17.348-32.955-9.5275-14.332-17.334-32.727-17.348-40.876-0.02714-16.223 16.806-44.233 17.196-28.613 0.43429 17.427 12.488 52.334 17.089 49.491 2.6011-1.6076 6.0053-16.202 7.5648-32.432 1.9777-20.582 8.3354-37.312 21.016-55.303 9.9994-14.186 18.181-29.779 18.181-34.652 0-4.8722 2.6059-7.2481 5.7908-5.2797s5.7908 14.724 5.7908 28.346c0 21.568-2.9913 27.452-23.163 45.561-21.778 19.551-29.623 40.129-18.028 47.294 5.9418 3.6722 19.534-10.636 14.698-15.472-1.7767-1.7767-0.5276-4.9009 2.7759-6.9425 9.5639-5.9108 14.133 24.288 6.4727 42.782-3.8368 9.2627-11.95 21.342-18.028 26.844-6.0788 5.5013-11.052 14.593-11.052 20.204 0 5.6108-2.4237 11.07-5.3861 12.132-2.9624 1.0616-1.5565 7.1293 3.124 13.484 7.2967 9.906 9.2906 10.319 13.984 2.8954 3.0104-4.7619 5.5134-14.521 5.5621-21.687 0.0488-7.1661 2.2988-13.029 5-13.029 7.209 0 25.975 44.306 21.697 51.227-2.0079 3.2488-5.8841 17.862-8.614 32.474-4.6833 25.069-4.0448 27.221 11.318 38.161l16.282 11.594-5.4249-18.916c-7.7589-27.054-6.9281-29.388 6.9899-19.639 19.155 13.417 33.831 39.266 33.873 59.661 0.021 10.163 2.6865 20.115 5.9234 22.116 3.2369 2.0005 4.4668 5.9323 2.7332 8.7374-2.7774 4.4939 14.124 17.263 22.85 17.263 7.3845 0 2.4993-23.818-8.8203-43.003-19.397-32.875-10.066-37.38 18.361-8.8664 18.248 18.304 27.395 33.276 31.449 51.476 6.5617 29.46 19.689 39.575 15.65 12.06-1.4207-9.6795-4.8884-19.024-7.7062-20.765-6.6398-4.1036-6.6347-14.064 0.007-14.064 10.017 0 47.004 43.31 53.314 62.428 6.7938 20.585 12.046 20.604 15.182 0.0545 2.4144-15.82 27.275-48.709 43.304-57.288 10.772-5.7647 11.708-5.2578 7.8802 4.2653-8.3441 20.759-10.792 54.238-3.9653 54.238 3.6043 0 6.0929-1.9544 5.5303-4.3431-1.5449-6.5591 12.142-54.58 20.024-70.253 7.4886-14.891 43.177-44.671 47.888-39.96 1.5812 1.5812-4.2518 16.161-12.962 32.399-16.752 31.23-15.942 39.258 3.3436 33.137 7.5645-2.4009 12.93-10.405 14.912-22.244 1.7021-10.172 4.3209-26.184 5.8196-35.582 2.878-18.049 34.62-54.63 41.465-47.785 2.2119 2.2119 1.1668 10.287-2.3224 17.945-8.1375 17.86-2.3983 23.634 11.231 11.299 11.081-10.028 15.06-50.69 5.5369-56.576-8.2229-5.082-5.9594-33.949 4.0001-51.015l9.234-15.823 6.0503 18.718c7.6005 23.514 17.1 24.137 19.344 1.268 1.2857-13.102-2.7719-22.037-16.283-35.856-14.029-14.35-18.068-23.647-18.324-42.184-0.4193-30.381 3.5941-34.142 13.223-12.389 8.2488 18.635 16.776 18.726 16.776 0.17912 0-6.308-10.423-21.686-23.163-34.174-20.199-19.799-23.163-26.025-23.163-48.651 0-14.27 2.6059-27.557 5.7908-29.525 3.1849-1.9684 5.7908 0.13225 5.7908 4.6681s5.4008 15.113 12.002 23.505c6.601 8.3918 9.8584 15.341 7.2385 15.442-2.6199 0.1013 0.0381 3.8223 5.9065 8.2688 6.9464 5.2633 11.529 17.829 13.132 36.008 4.5357 51.443 15.991 56.141 22.995 9.4314 3.749-25 4.6253-26.12 12.357-15.79 11.196 14.958 6.352 48.658-10.215 71.066-7.2234 9.7702-13.606 25.712-14.184 35.427-0.9995 16.801-0.53083 17.192 9.6033 8.0212 5.8597-5.303 10.654-14.296 10.654-19.984 0-5.6883 2.6059-11.953 5.7908-13.921 3.4586-2.1376 5.7908 4.9783 5.7908 17.669 0 17.509-4.575 25.758-26.002 46.882-14.301 14.099-27.732 32.704-29.846 41.345s-6.6998 17.625-10.191 19.965c-4.2507 2.8493-3.765 4.2837 1.4707 4.3431 4.2996 0.0488 16.677-8.7712 27.506-19.6 21.924-21.924 23.699-20.277 10.972 10.182-9.5304 22.809-23.26 33.539-56.333 44.023-12.735 4.0372-26.897 14.415-34.466 25.256-7.0662 10.122-15.579 20.318-18.918 22.658-9.2599 6.4904 4.9518 5.4553 23.955-1.7448 8.9659-3.3971 22.165-11.669 29.331-18.382 16.144-15.123 16.698-8.8026 1.3965 15.955-13.532 21.896-31.414 29.946-74.265 33.435-21.441 1.7457-34.672 6.3019-43.27 14.9l-12.385 12.385h16.145c8.8795 0 21.185-2.6975 27.345-5.9945 15.559-8.3268 14.351 1.687-2.5779 21.368-12.162 14.139-18.617 16.292-55.012 18.349-22.679 1.2815-41.234 3.7385-41.234 5.46 0 1.7216 13.029 16.907 28.954 33.745 23.242 24.575 28.861 34.396 28.482 49.781l-0.47238 19.167-8.7724-20.268c-11.327-26.169-46.705-69.489-56.75-69.489-10.822 0-37.446 32.796-50.536 62.251-6.0152 13.536-12.118 24.611-13.561 24.611-1.4434 0-2.6244-9.0168-2.6244-20.037z"/>
  </g>
  <metadata>
    <rdf:RDF>
      <cc:Work>
        <dc:format>image/svg+xml</dc:format>
        <dc:type rdf:resource="http://purl.org/dc/dcmitype/StillImage"/>
        <cc:license rdf:resource="http://creativecommons.org/licenses/publicdomain/"/>
        <dc:publisher>
          <cc:Agent rdf:about="http://openclipart.org/">
            <dc:title>Openclipart</dc:title>
          </cc:Agent>
        </dc:publisher>
        <dc:title>Laurel</dc:title>
        <dc:date>2009-03-11T09:34:13</dc:date>
        <dc:description/>
        <dc:source>https://openclipart.org/detail/22132/laurel-by-steren</dc:source>
        <dc:creator>
          <cc:Agent>
            <dc:title>Steren</dc:title>
          </cc:Agent>
        </dc:creator>
        <dc:subject>
          <rdf:Bag>
            <rdf:li>fame</rdf:li>
            <rdf:li>laurel</rdf:li>
            <rdf:li>nature</rdf:li>
            <rdf:li>outline</rdf:li>
            <rdf:li>victory</rdf:li>
            <rdf:li>wreath</rdf:li>
          </rdf:Bag>
        </dc:subject>
      </cc:Work>
      <cc:License rdf:about="http://creativecommons.org/licenses/publicdomain/">
        <cc:permits rdf:resource="http://creativecommons.org/ns#Reproduction"/>
        <cc:permits rdf:resource="http://creativecommons.org/ns#Distribution"/>
        <cc:permits rdf:resource="http://creativecommons.org/ns#DerivativeWorks"/>
      </cc:License>
    </rdf:RDF>
  </metadata>
</svg>
